:SAMPLES-PER-SECOND 30
:FRAME-RANGE 1-3549
:FULLY-SPECIFIED
:DEGREES
2551
root  0.321971 17.4387 -45.1739 -4.41846 20.5876 2.40479
RightUpLeg  -70.5346 -22.3107 -8.53241
RightLeg  136.829 -5.14256 5.0301
RightFoot  -46.6096 2.68668 9.45313
RightToes  -1.11029e-010 1.2921e-014 -6.02303e-014
Spine  44.9681 0.888773 -0.889179
Spine1  -8.95915 1.28451 -3.54592
HEad  -20.3127 -3.297 1.08985
LeftShoulder1  1.79541 -5.39204 -13.1841
LeftArm  -29.286 -68.014 -37.8118
LeftForeArm  37.8017 -42.4686 -7.74058
LeftHand  -0.176798 4.37474 19.3924
RightShoulder  7.34526 31.1983 13.9616
RightArm  -56.107 28.5542 -5.38467
RightForeArm  38.9927 51.7565 11.1504
RightHand  -1.41875 1.59724 -23.475
LeftUpLeg  -73.2428 27.2838 6.72106
LeftLeg  135.508 8.16448 -7.81918
LeftFoot  -38.1471 -0.976943 -5.06859
LeftToes  -1.9349e-011 -1.19469e-011 -2.02219e-012
2552
root  0.321171 17.158 -45.1186 -4.40314 20.7565 2.6604
RightUpLeg  -70.8963 -22.4239 -8.47329
RightLeg  137.91 -4.60937 4.41316
RightFoot  -47.5034 2.76016 9.44899
RightToes  -1.11029e-010 1.2921e-014 -6.02303e-014
Spine  45.1978 0.764737 -0.767774
Spine1  -9.33282 1.23581 -3.89567
HEad  -21.1532 -3.637 1.10485
LeftShoulder1  1.76566 -5.43215 -12.717
LeftArm  -31.4666 -68.5697 -36.3214
LeftForeArm  38.6633 -43.6651 -8.06846
LeftHand  -0.153774 4.52549 19.6861
RightShoulder  7.1026 31.2759 13.148
RightArm  -57.6678 28.3875 -5.41153
RightForeArm  39.922 52.9681 11.6445
RightHand  -1.41706 1.62892 -23.3465
LeftUpLeg  -73.9448 27.3448 6.35291
LeftLeg  136.488 7.95598 -7.3872
LeftFoot  -38.1883 -0.921119 -4.82807
LeftToes  -1.9349e-011 -1.19469e-011 -2.02219e-012
2553
root  0.301818 16.9252 -45.0649 -4.59192 20.9834 2.80701
RightUpLeg  -70.7757 -22.1542 -8.89457
RightLeg  138.822 -4.60502 4.28227
RightFoot  -48.0482 2.85667 9.60116
RightToes  -1.11029e-010 1.2921e-014 -6.02303e-014
Spine  45.5026 0.65029 -0.632791
Spine1  -9.61199 1.17109 -4.05839
HEad  -21.8139 -3.77447 1.12842
LeftShoulder1  1.74083 -5.42398 -12.4297
LeftArm  -33.4065 -68.9728 -35.0067
LeftForeArm  39.7072 -45.1621 -8.50092
LeftHand  -0.110443 4.79189 20.0467
RightShoulder  6.93324 31.4378 12.5112
RightArm  -59.268 28.5049 -5.70534
RightForeArm  40.9303 53.9432 12.0433
RightHand  -1.41594 1.67272 -23.1897
LeftUpLeg  -74.3951 27.126 6.21595
LeftLeg  137.318 7.58424 -6.87252
LeftFoot  -38.1956 -0.933989 -4.88073
LeftToes  -1.9349e-011 -1.19469e-011 -2.02219e-012
2554
root  0.278426 16.7324 -45.0006 -4.96735 21.2717 2.87524
RightUpLeg  -70.3786 -21.7995 -9.60755
RightLeg  139.69 -5.03841 4.50337
RightFoot  -48.2184 3.0779 10.2175
RightToes  -1.11029e-010 1.2921e-014 -6.02303e-014
Spine  45.7718 0.57211 -0.453867
Spine1  -9.76452 1.15133 -4.17316
HEad  -22.0438 -3.90758 0.950825
LeftShoulder1  1.74556 -5.48154 -12.35
LeftArm  -34.9256 -69.3989 -34.3205
LeftForeArm  40.7422 -46.2773 -8.8218
LeftHand  -0.116652 4.76441 20.3746
RightShoulder  6.81616 31.5979 12.0433
RightArm  -60.5508 28.7583 -5.95614
RightForeArm  41.4698 54.7375 12.4072
RightHand  -1.43373 1.55409 -23.8562
LeftUpLeg  -74.3256 26.713 6.80997
LeftLeg  137.972 7.9057 -6.98659
LeftFoot  -38.1407 -1.02219 -5.25932
LeftToes  -1.9349e-011 -1.19469e-011 -2.02219e-012
2555
root  0.247398 16.5728 -44.9173 -5.466 21.4122 2.91406
RightUpLeg  -69.9776 -21.3305 -9.97384
RightLeg  140.507 -5.009 4.36279
RightFoot  -48.157 3.2689 10.8046
RightToes  -1.11029e-010 1.2921e-014 -6.02303e-014
Spine  45.963 0.708548 -0.443295
Spine1  -9.83469 1.27186 -4.07709
HEad  -22.019 -4.07423 0.92833
LeftShoulder1  1.7792 -5.61118 -12.4528
LeftArm  -36.0229 -69.5908 -34.3601
LeftForeArm  41.3961 -47.0306 -9.04962
LeftHand  -0.0746301 5.01248 20.9474
RightShoulder  6.80125 31.9097 11.802
RightArm  -61.655 28.9975 -6.12239
RightForeArm  42.1384 55.0601 12.5217
RightHand  -1.45258 1.48313 -24.3984
LeftUpLeg  -73.8201 26.4873 7.8685
LeftLeg  138.503 8.56882 -7.39467
LeftFoot  -38.0263 -1.11365 -5.66455
LeftToes  -1.9349e-011 -1.19469e-011 -2.02219e-012
2556
root  0.223455 16.4508 -44.8319 -5.76068 21.6002 3.02466
RightUpLeg  -69.5267 -21.1592 -10.3942
RightLeg  141.139 -5.1828 4.40274
RightFoot  -48.3788 3.38249 11.0773
RightToes  -1.11029e-010 1.2921e-014 -6.02303e-014
Spine  45.8889 0.710587 -0.463819
Spine1  -9.86564 1.24073 -4.06757
HEad  -21.9193 -3.97718 0.899586
LeftShoulder1  1.79638 -5.66101 -12.5428
LeftArm  -36.8069 -69.5275 -34.8213
LeftForeArm  41.1333 -47.3454 -9.18333
LeftHand  -0.00644782 5.38798 21.4983
RightShoulder  6.87492 32.451 11.6954
RightArm  -62.5873 29.2468 -6.02139
RightForeArm  42.4401 54.8576 12.3893
RightHand  -1.47324 1.40348 -25.0111
LeftUpLeg  -73.426 26.2978 8.53372
LeftLeg  138.902 9.07563 -7.69495
LeftFoot  -38.0405 -1.15534 -5.83713
LeftToes  -1.9349e-011 -1.19469e-011 -2.02219e-012
2557
root  0.196697 16.3459 -44.7436 -5.97162 21.8874 3.22156
RightUpLeg  -68.7754 -21.1313 -11.2401
RightLeg  141.629 -6.05862 4.96994
RightFoot  -48.9482 3.54798 11.3932
RightToes  -1.11029e-010 1.2921e-014 -6.02303e-014
Spine  45.6982 0.661685 -0.461714
Spine1  -9.84397 1.19189 -4.29435
HEad  -21.6984 -4.08607 0.87913
LeftShoulder1  1.81428 -5.7316 -12.5915
LeftArm  -37.322 -69.6827 -35.0166
LeftForeArm  39.9711 -46.8738 -9.08889
LeftHand  0.0456123 5.66718 21.606
RightShoulder  6.88897 32.7571 11.5529
RightArm  -63.282 29.6626 -6.03035
RightForeArm  42.0454 53.913 11.9372
RightHand  -1.43844 1.3855 -24.5027
LeftUpLeg  -73.1034 26.1277 9.0157
LeftLeg  139.224 9.51066 -7.94937
LeftFoot  -37.9356 -1.14794 -5.82695
LeftToes  -1.9349e-011 -1.19469e-011 -2.02219e-012
2558
root  0.172644 16.2737 -44.6609 -6.30701 22.1332 3.29346
RightUpLeg  -67.9969 -21.2099 -11.8878
RightLeg  142.033 -6.73668 5.38827
RightFoot  -49.1385 3.6058 11.5036
RightToes  -1.11029e-010 1.2921e-014 -6.02303e-014
Spine  45.55 0.627902 -0.364588
Spine1  -9.75354 1.18626 -4.42836
HEad  -21.7765 -4.22402 0.834644
LeftShoulder1  1.78624 -5.71414 -12.2965
LeftArm  -38.0951 -70.5049 -34.2572
LeftForeArm  38.417 -45.1636 -8.58649
LeftHand  0.0219782 5.54723 21.0867
RightShoulder  6.74591 33.1424 10.8963
RightArm  -64.0573 30.0099 -6.12661
RightForeArm  41.241 52.2326 11.1938
RightHand  -1.43945 1.4115 -24.4295
LeftUpLeg  -72.4822 26.1155 9.93861
LeftLeg  139.371 10.4523 -8.6346
LeftFoot  -37.8194 -1.16727 -5.9323
LeftToes  -1.9349e-011 -1.19469e-011 -2.02219e-012
2559
root  0.15047 16.2066 -44.5734 -6.60107 22.3536 3.42639
RightUpLeg  -67.2209 -21.3843 -12.8771
RightLeg  142.415 -7.8781 6.12109
RightFoot  -49.1084 3.56339 11.3897
RightToes  -1.11029e-010 1.2921e-014 -6.02303e-014
Spine  45.4618 0.634323 -0.299712
Spine1  -9.87566 1.19617 -4.59849
HEad  -21.7226 -4.33333 0.588356
LeftShoulder1  1.71979 -5.74395 -11.4317
LeftArm  -39.6187 -71.8971 -32.6896
LeftForeArm  37.3896 -42.1608 -7.67031
LeftHand  -0.0159775 5.34017 20.4542
RightShoulder  6.49168 33.438 9.97202
RightArm  -64.66 30.3716 -6.31896
RightForeArm  40.4755 50.4584 10.4662
RightHand  -1.41167 1.34455 -24.2023
LeftUpLeg  -71.7261 26.3235 11.0237
LeftLeg  139.42 11.7554 -9.61309
LeftFoot  -37.7833 -1.14465 -5.84363
LeftToes  -1.9349e-011 -1.19469e-011 -2.02219e-012
2560
root  0.130527 16.1605 -44.4872 -6.9306 22.5634 3.34656
RightUpLeg  -66.4407 -21.699 -13.4868
RightLeg  142.66 -8.86589 6.7541
RightFoot  -49.0994 3.54191 11.33
RightToes  -1.11029e-010 1.2921e-014 -6.02303e-014
Spine  45.3631 0.916559 -0.402318
Spine1  -10.0256 1.342 -3.97577
HEad  -21.7703 -4.56521 0.255632
LeftShoulder1  1.65908 -5.81055 -10.5605
LeftArm  -42.5287 -73.8592 -28.9823
LeftForeArm  35.0534 -37.9983 -6.59412
LeftHand  -0.0433608 5.17965 19.4523
RightShoulder  5.95486 33.714 8.23438
RightArm  -65.3574 30.8611 -6.75961
RightForeArm  40.286 48.0486 9.50743
RightHand  -1.4141 1.63415 -23.2826
LeftUpLeg  -71.1959 26.6423 11.8901
LeftLeg  139.507 12.5263 -10.1654
LeftFoot  -37.543 -1.0452 -5.46604
LeftToes  -1.9349e-011 -1.19469e-011 -2.02219e-012
2561
root  0.117168 16.1008 -44.3933 -6.9743 22.8812 3.44019
RightUpLeg  -65.8065 -22.2052 -14.342
RightLeg  142.935 -10.0142 7.47284
RightFoot  -49.1705 3.52913 11.2718
RightToes  -1.11029e-010 1.2921e-014 -6.02303e-014
Spine  45.1006 0.74106 -0.393536
Spine1  -10.3829 1.15253 -4.27401
HEad  -21.5181 -4.57116 0.227827
LeftShoulder1  1.48459 -5.71354 -8.6587
LeftArm  -47.4746 -76.0994 -22.3666
LeftForeArm  31.7203 -31.7765 -5.19181
LeftHand  -0.134635 4.57383 17.9218
RightShoulder  5.43846 34.1908 6.48639
RightArm  -66.2325 31.6431 -7.26655
RightForeArm  39.9581 44.0157 8.10044
RightHand  -1.43788 1.8605 -22.952
LeftUpLeg  -71.0465 26.9201 12.3816
LeftLeg  139.611 13.2389 -10.6609
LeftFoot  -37.3327 -1.00012 -5.3111
LeftToes  -1.9349e-011 -1.19469e-011 -2.02219e-012
2562
root  0.10942 16.0578 -44.3099 -7.08002 22.9765 3.32812
RightUpLeg  -65.4056 -22.5493 -14.7201
RightLeg  143.135 -10.8208 7.96357
RightFoot  -49.1155 3.52888 11.2874
RightToes  -1.11029e-010 1.2921e-014 -6.02303e-014
Spine  44.7864 0.890355 -0.553118
Spine1  -10.6439 1.15537 -3.7621
HEad  -21.4872 -4.31726 -0.296567
LeftShoulder1  1.29947 -5.7319 -6.37494
LeftArm  -54.4972 -78.3697 -9.21509
LeftForeArm  25.204 -23.3143 -3.74052
LeftHand  -0.146364 4.42148 16.4
RightShoulder  4.35429 34.6394 3.13408
RightArm  -66.6068 33.0635 -7.98853
RightForeArm  37.876 35.6577 5.80843
RightHand  -1.33954 2.03779 -20.9372
LeftUpLeg  -70.9101 27.3479 12.9819
LeftLeg  139.741 13.7018 -10.9555
LeftFoot  -37.0849 -0.947567 -5.12751
LeftToes  -1.9349e-011 -1.19469e-011 -2.02219e-012
2563
root  0.09331 16.0269 -44.2641 -7.15723 23.0427 3.26941
RightUpLeg  -65.3214 -22.8493 -14.7198
RightLeg  143.361 -10.8225 7.90219
RightFoot  -48.9407 3.50249 11.2628
RightToes  -1.11029e-010 1.2921e-014 -6.02303e-014
Spine  44.5412 0.869662 -0.856538
Spine1  -10.8203 0.958303 -3.38165
HEad  -22.4264 -3.5352 -0.79005
LeftShoulder1  0.981809 -5.64069 -2.60955
LeftArm  -75.5072 -78.2969 6.86531
LeftForeArm  30.0873 -15.9098 -6.08215
LeftHand  -0.0729435 4.94389 16.1233
RightShoulder  2.46115 35.1352 -2.51128
RightArm  -67.4635 35.013 -8.21015
RightForeArm  33.8177 23.5373 3.28869
RightHand  -1.13782 1.26075 -19.8663
LeftUpLeg  -70.8353 27.6393 13.2866
LeftLeg  139.821 13.8965 -11.0687
LeftFoot  -36.9927 -0.890844 -4.89524
LeftToes  -1.9349e-011 -1.19469e-011 -2.02219e-012
